<svg width="1440" height="925" viewBox="0 0 1440 925" fill="none" xmlns="http://www.w3.org/2000/svg">
<g clip-path="url(#clip0_42_2047)">
<g filter="url(#filter0_f_42_2047)">
<path fill-rule="evenodd" clip-rule="evenodd" d="M703.909 -7.66662C765.539 -34.3235 834.272 4.29552 900.663 14.2474C956.044 22.549 1009.65 28.1769 1062.69 46.1147C1125.11 67.2225 1207.29 70.6013 1238.63 128.539C1270.27 187.021 1211.49 256.411 1212.45 322.906C1213.4 389.063 1264.25 452.323 1244.22 515.396C1223.71 580.029 1169.2 636.043 1105.58 659.555C1043.6 682.463 977.997 638.491 911.924 638.206C847.865 637.931 784.119 680.107 724.041 657.912C662.607 635.216 606.917 582.366 589.737 519.18C572.728 456.621 636.722 398.433 635.863 333.602C635.01 269.257 572.271 213.96 584.855 150.845C597.998 84.9323 642.204 19.0233 703.909 -7.66662Z" fill="#E4ECF2"/>
</g>
<g filter="url(#filter1_f_42_2047)">
<path fill-rule="evenodd" clip-rule="evenodd" d="M382.503 576.783C339.114 589.678 315.331 644.137 270.345 649.155C224.675 654.25 185.877 619.385 142.745 603.531C90.1847 584.211 11.8624 596.173 -11.8305 545.434C-36.3399 492.947 40.0492 440.445 39.5416 382.52C39.0267 323.761 -25.8661 275.639 -14.7002 217.949C-3.39783 159.554 41.6168 103.521 97.4893 83.1248C153.418 62.7081 212.466 99.9328 270.345 113.893C315.612 124.812 359.91 134.304 400.943 156.318C442.979 178.87 481.155 206.485 511.516 243.28C545.761 284.781 576.936 329.78 587.594 382.52C599.447 441.173 618.67 517.394 575.227 558.543C527.566 603.688 445.429 558.081 382.503 576.783Z" fill="#C0CAD2"/>
</g>
<g filter="url(#filter2_f_42_2047)">
<path fill-rule="evenodd" clip-rule="evenodd" d="M603.196 -271.206C673.412 -282.506 713.529 -170.567 753.951 -102.875C783.633 -53.1702 797.416 5.69122 804.356 65.6577C809.652 111.423 770.237 160.017 789.081 200.668C836.712 303.416 1008.05 343.747 986.061 457.631C967.55 553.502 816.318 436.079 737.045 470.169C677.513 495.77 663.68 599.894 603.196 622.276C539.887 645.704 459.787 641.426 409.069 591.537C357.649 540.959 374.105 444.047 348.416 371.665C326.879 310.979 283.693 264.456 270.349 200.668C254.706 125.89 220.394 30.4775 265.185 -26.1906C313.675 -87.5393 413.941 -13.8598 474.756 -57.9425C539.197 -104.655 527.97 -259.1 603.196 -271.206Z" fill="#D9E9F4"/>
</g>
<g filter="url(#filter3_f_42_2047)">
<path fill-rule="evenodd" clip-rule="evenodd" d="M1044.39 320.882C1009.14 338.918 972.983 354.4 942.745 380.413C895.423 421.124 877.076 513.412 817.062 516.454C759.947 519.35 762.002 417.712 713.367 392.042C665.964 367.022 594.56 406.52 550.854 375.946C509.038 346.694 477.053 288.395 490.355 236.036C505.81 175.202 593.023 154.249 621.642 97.3133C641.03 58.7404 598.93 10.3099 622.216 -26.3023C645.137 -62.3396 700.202 -57.8607 735.634 -81.9096C772.199 -106.728 792.728 -153.891 833.482 -169.697C874.786 -185.716 919.303 -176.491 961.13 -169.366C1004.71 -161.943 1050.23 -154.171 1083.65 -127.086C1117.13 -99.9441 1136.77 -58.8425 1149.23 -16.8817C1161.09 23.0729 1147.22 67.5548 1153.8 109.116C1161.69 159.009 1216.28 205.761 1191.91 252.916C1166.79 301.556 1093.23 295.892 1044.39 320.882Z" fill="#B5BFC8"/>
</g>
<g filter="url(#filter4_f_42_2047)">
<path fill-rule="evenodd" clip-rule="evenodd" d="M449.745 597.717C483.27 615.512 515.285 634.563 552.331 647.053C610.309 666.6 692.944 654.042 728.266 691.62C761.882 727.384 680.834 752.822 687.335 790.681C693.672 827.581 763.91 862.848 763.85 898.846C763.793 933.288 735.501 969.088 687.032 974.363C630.716 980.491 566.386 930.233 505.913 926.917C464.944 924.671 449.963 964.342 408.396 959.087C367.483 953.915 340.791 917.522 302.439 901.193C262.86 884.341 214.51 883.627 179.72 861.725C144.46 839.527 127.288 808.63 109.939 780.006C91.8645 750.183 72.9959 719.023 75.9609 690.527C78.932 661.972 100.475 638.594 126.632 619.579C151.538 601.474 194.126 598.637 223.198 583.492C258.1 565.311 264.911 518.099 315.358 521.266C367.392 524.533 403.298 573.063 449.745 597.717Z" fill="#B5BFC8"/>
</g>
<g filter="url(#filter5_f_42_2047)">
<path fill-rule="evenodd" clip-rule="evenodd" d="M1268.87 1019.97C1174.01 1024.46 1117.72 955.737 1050.29 912.747C1005.06 883.91 966.992 851.323 940.718 810.743C917.811 775.363 925.85 732.32 909.032 694.573C883.052 636.259 801.695 594.136 815.435 529.544C829.666 462.65 892.24 381.306 979.976 361.088C1073.53 339.53 1134.01 424.217 1224.89 435.188C1293.06 443.417 1380.46 386.609 1434.1 415.91C1488.03 445.372 1433.64 523.452 1466.72 567.293C1511.59 626.74 1645.81 636.757 1654.41 707.853C1662.56 775.155 1572.58 837.188 1505.92 891.155C1437.94 946.182 1362.28 1015.54 1268.87 1019.97Z" fill="#DBE7F1"/>
</g>
</g>
<defs>
<filter id="filter0_f_42_2047" x="403.188" y="-196.888" width="1025.7" height="1043.05" filterUnits="userSpaceOnUse" color-interpolation-filters="sRGB">
<feFlood flood-opacity="0" result="BackgroundImageFix"/>
<feBlend mode="normal" in="SourceGraphic" in2="BackgroundImageFix" result="shape"/>
<feGaussianBlur stdDeviation="90" result="effect1_foregroundBlur_42_2047"/>
</filter>
<filter id="filter1_f_42_2047" x="-196.68" y="-102.862" width="978.904" height="932.521" filterUnits="userSpaceOnUse" color-interpolation-filters="sRGB">
<feFlood flood-opacity="0" result="BackgroundImageFix"/>
<feBlend mode="normal" in="SourceGraphic" in2="BackgroundImageFix" result="shape"/>
<feGaussianBlur stdDeviation="90" result="effect1_foregroundBlur_42_2047"/>
</filter>
<filter id="filter2_f_42_2047" x="63" y="-452" width="1105" height="1268" filterUnits="userSpaceOnUse" color-interpolation-filters="sRGB">
<feFlood flood-opacity="0" result="BackgroundImageFix"/>
<feBlend mode="normal" in="SourceGraphic" in2="BackgroundImageFix" result="shape"/>
<feGaussianBlur stdDeviation="90" result="effect1_foregroundBlur_42_2047"/>
</filter>
<filter id="filter3_f_42_2047" x="307.301" y="-358.554" width="1070.83" height="1055.07" filterUnits="userSpaceOnUse" color-interpolation-filters="sRGB">
<feFlood flood-opacity="0" result="BackgroundImageFix"/>
<feBlend mode="normal" in="SourceGraphic" in2="BackgroundImageFix" result="shape"/>
<feGaussianBlur stdDeviation="90" result="effect1_foregroundBlur_42_2047"/>
</filter>
<filter id="filter4_f_42_2047" x="-104.349" y="341.114" width="1048.2" height="813.766" filterUnits="userSpaceOnUse" color-interpolation-filters="sRGB">
<feFlood flood-opacity="0" result="BackgroundImageFix"/>
<feBlend mode="normal" in="SourceGraphic" in2="BackgroundImageFix" result="shape"/>
<feGaussianBlur stdDeviation="90" result="effect1_foregroundBlur_42_2047"/>
</filter>
<filter id="filter5_f_42_2047" x="633.884" y="177.59" width="1201.05" height="1022.59" filterUnits="userSpaceOnUse" color-interpolation-filters="sRGB">
<feFlood flood-opacity="0" result="BackgroundImageFix"/>
<feBlend mode="normal" in="SourceGraphic" in2="BackgroundImageFix" result="shape"/>
<feGaussianBlur stdDeviation="90" result="effect1_foregroundBlur_42_2047"/>
</filter>
<clipPath id="clip0_42_2047">
<rect width="1440" height="925" fill="white"/>
</clipPath>
</defs>
</svg>
