<svg width="1440" height="925" viewBox="0 0 1440 925" fill="none" xmlns="http://www.w3.org/2000/svg">
<g clip-path="url(#clip0_42_2040)">
<g filter="url(#filter0_f_42_2040)">
<path fill-rule="evenodd" clip-rule="evenodd" d="M703.909 -7.66662C765.539 -34.3235 834.272 4.29552 900.663 14.2474C956.044 22.549 1009.65 28.1769 1062.69 46.1147C1125.11 67.2225 1207.29 70.6013 1238.63 128.539C1270.27 187.021 1211.49 256.411 1212.45 322.906C1213.4 389.063 1264.25 452.323 1244.22 515.396C1223.71 580.029 1169.2 636.043 1105.58 659.555C1043.6 682.463 977.997 638.491 911.924 638.206C847.865 637.931 784.119 680.107 724.041 657.912C662.607 635.216 606.917 582.366 589.737 519.18C572.728 456.621 636.722 398.433 635.863 333.602C635.01 269.257 572.271 213.96 584.855 150.845C597.998 84.9323 642.204 19.0233 703.909 -7.66662Z" fill="#E4ECF2"/>
</g>
<g filter="url(#filter1_f_42_2040)">
<path fill-rule="evenodd" clip-rule="evenodd" d="M441.503 866.783C398.114 879.678 374.331 934.137 329.345 939.155C283.675 944.25 244.877 909.385 201.745 893.531C149.185 874.211 70.8624 886.173 47.1695 835.434C22.6601 782.947 99.0492 730.445 98.5416 672.52C98.0267 613.761 33.1339 565.639 44.2998 507.949C55.6022 449.554 100.617 393.521 156.489 373.125C212.418 352.708 271.466 389.933 329.345 403.893C374.612 414.812 418.91 424.304 459.943 446.318C501.979 468.87 540.155 496.485 570.516 533.28C604.761 574.781 635.936 619.78 646.594 672.52C658.447 731.173 677.67 807.394 634.227 848.543C586.566 893.688 504.429 848.081 441.503 866.783Z" fill="#C0CAD2"/>
</g>
<g filter="url(#filter2_f_42_2040)">
<path fill-rule="evenodd" clip-rule="evenodd" d="M1387.2 -96.2059C1457.41 -107.506 1497.53 4.43331 1537.95 72.1253C1567.63 121.83 1581.42 180.691 1588.36 240.658C1593.65 286.423 1554.24 335.017 1573.08 375.668C1620.71 478.416 1792.05 518.747 1770.06 632.631C1751.55 728.502 1600.32 611.079 1521.04 645.169C1461.51 670.77 1447.68 774.894 1387.2 797.276C1323.89 820.704 1243.79 816.426 1193.07 766.537C1141.65 715.959 1158.1 619.047 1132.42 546.665C1110.88 485.979 1067.69 439.456 1054.35 375.668C1038.71 300.89 1004.39 205.478 1049.19 148.809C1097.68 87.4607 1197.94 161.14 1258.76 117.057C1323.2 70.3455 1311.97 -84.0995 1387.2 -96.2059Z" fill="#D9E9F4"/>
</g>
<g filter="url(#filter3_f_42_2040)">
<path fill-rule="evenodd" clip-rule="evenodd" d="M446.394 413.882C411.145 431.918 374.983 447.4 344.745 473.413C297.423 514.124 279.076 606.412 219.062 609.454C161.947 612.35 164.002 510.712 115.367 485.042C67.9645 460.022 -3.43954 499.52 -47.1459 468.946C-88.9621 439.694 -120.947 381.395 -107.645 329.036C-92.1901 268.202 -4.97654 247.249 23.6418 190.313C43.03 151.74 0.929833 103.31 24.2164 66.6977C47.1374 30.6604 102.202 35.1393 137.634 11.0904C174.199 -13.7282 194.728 -60.8907 235.482 -76.6966C276.786 -92.7158 321.303 -83.4905 363.13 -76.366C406.709 -68.9432 452.234 -61.171 485.646 -34.0856C519.126 -6.94408 538.766 34.1575 551.228 76.1183C563.095 116.073 549.223 160.555 555.798 202.116C563.692 252.009 618.276 298.761 593.915 345.916C568.786 394.556 495.232 388.892 446.394 413.882Z" fill="#B5BFC8"/>
</g>
<g filter="url(#filter4_f_42_2040)">
<path fill-rule="evenodd" clip-rule="evenodd" d="M1076.97 562.547C1080.52 600.335 1082.19 637.552 1092.11 675.369C1107.62 734.553 1163.51 796.701 1151.52 846.861C1140.1 894.597 1074.32 840.85 1046.26 867.081C1018.91 892.648 1028.03 970.712 997.915 990.438C969.106 1009.31 923.649 1005.34 892.614 967.737C856.554 924.048 863.208 842.685 832.756 790.334C812.126 754.867 770.747 764.143 752.302 726.524C734.147 689.496 749.893 647.199 742.467 606.183C734.804 563.854 708.84 523.061 708.028 481.959C707.205 440.302 723.588 408.979 737.974 378.758C752.964 347.271 768.634 314.386 794.074 301.209C819.566 288.004 850.935 293.162 881.193 304.571C910.004 315.435 935.772 349.463 964.398 365.435C998.764 384.609 1041.96 364.364 1067.02 408.256C1092.88 453.53 1072.05 510.192 1076.97 562.547Z" fill="#B5BFC8"/>
</g>
<g filter="url(#filter5_f_42_2040)">
<path fill-rule="evenodd" clip-rule="evenodd" d="M789.865 557.965C695.011 562.461 638.717 493.737 571.29 450.747C526.062 421.91 487.992 389.323 461.718 348.743C438.811 313.363 446.85 270.32 430.032 232.573C404.052 174.259 322.695 132.136 336.435 67.5443C350.666 0.649811 413.24 -80.6936 500.976 -100.912C594.528 -122.47 655.015 -37.7826 745.892 -26.8118C814.056 -18.583 901.457 -75.3915 955.097 -46.0899C1009.03 -16.6282 954.64 61.4525 987.724 105.293C1032.59 164.74 1166.81 174.757 1175.41 245.853C1183.56 313.155 1093.58 375.188 1026.92 429.155C958.943 484.182 883.279 553.539 789.865 557.965Z" fill="#DBE7F1"/>
</g>
</g>
<defs>
<filter id="filter0_f_42_2040" x="403.188" y="-196.888" width="1025.7" height="1043.05" filterUnits="userSpaceOnUse" color-interpolation-filters="sRGB">
<feFlood flood-opacity="0" result="BackgroundImageFix"/>
<feBlend mode="normal" in="SourceGraphic" in2="BackgroundImageFix" result="shape"/>
<feGaussianBlur stdDeviation="90" result="effect1_foregroundBlur_42_2040"/>
</filter>
<filter id="filter1_f_42_2040" x="-137.68" y="187.138" width="978.904" height="932.521" filterUnits="userSpaceOnUse" color-interpolation-filters="sRGB">
<feFlood flood-opacity="0" result="BackgroundImageFix"/>
<feBlend mode="normal" in="SourceGraphic" in2="BackgroundImageFix" result="shape"/>
<feGaussianBlur stdDeviation="90" result="effect1_foregroundBlur_42_2040"/>
</filter>
<filter id="filter2_f_42_2040" x="847" y="-277" width="1105" height="1268" filterUnits="userSpaceOnUse" color-interpolation-filters="sRGB">
<feFlood flood-opacity="0" result="BackgroundImageFix"/>
<feBlend mode="normal" in="SourceGraphic" in2="BackgroundImageFix" result="shape"/>
<feGaussianBlur stdDeviation="90" result="effect1_foregroundBlur_42_2040"/>
</filter>
<filter id="filter3_f_42_2040" x="-290.699" y="-265.554" width="1070.83" height="1055.07" filterUnits="userSpaceOnUse" color-interpolation-filters="sRGB">
<feFlood flood-opacity="0" result="BackgroundImageFix"/>
<feBlend mode="normal" in="SourceGraphic" in2="BackgroundImageFix" result="shape"/>
<feGaussianBlur stdDeviation="90" result="effect1_foregroundBlur_42_2040"/>
</filter>
<filter id="filter4_f_42_2040" x="527.998" y="113.391" width="805.195" height="1068.08" filterUnits="userSpaceOnUse" color-interpolation-filters="sRGB">
<feFlood flood-opacity="0" result="BackgroundImageFix"/>
<feBlend mode="normal" in="SourceGraphic" in2="BackgroundImageFix" result="shape"/>
<feGaussianBlur stdDeviation="90" result="effect1_foregroundBlur_42_2040"/>
</filter>
<filter id="filter5_f_42_2040" x="154.884" y="-284.41" width="1201.05" height="1022.59" filterUnits="userSpaceOnUse" color-interpolation-filters="sRGB">
<feFlood flood-opacity="0" result="BackgroundImageFix"/>
<feBlend mode="normal" in="SourceGraphic" in2="BackgroundImageFix" result="shape"/>
<feGaussianBlur stdDeviation="90" result="effect1_foregroundBlur_42_2040"/>
</filter>
<clipPath id="clip0_42_2040">
<rect width="1440" height="925" fill="white"/>
</clipPath>
</defs>
</svg>
