<svg width="1440" height="925" viewBox="0 0 1440 925" fill="none" xmlns="http://www.w3.org/2000/svg">
<g clip-path="url(#clip0_42_2054)">
<g filter="url(#filter0_f_42_2054)">
<path fill-rule="evenodd" clip-rule="evenodd" d="M703.909 -7.66662C765.539 -34.3235 834.272 4.29552 900.663 14.2474C956.044 22.549 1009.65 28.1769 1062.69 46.1147C1125.11 67.2225 1207.29 70.6013 1238.63 128.539C1270.27 187.021 1211.49 256.411 1212.45 322.906C1213.4 389.063 1264.25 452.323 1244.22 515.396C1223.71 580.029 1169.2 636.043 1105.58 659.555C1043.6 682.463 977.997 638.491 911.924 638.206C847.865 637.931 784.119 680.107 724.041 657.912C662.607 635.216 606.917 582.366 589.737 519.18C572.728 456.621 636.722 398.433 635.863 333.602C635.01 269.257 572.271 213.96 584.855 150.845C597.998 84.9323 642.204 19.0233 703.909 -7.66662Z" fill="#E4ECF2"/>
</g>
<g filter="url(#filter1_f_42_2054)">
<path fill-rule="evenodd" clip-rule="evenodd" d="M407.503 395.783C364.114 408.678 340.331 463.137 295.345 468.155C249.675 473.25 210.877 438.385 167.745 422.531C115.185 403.211 36.8624 415.173 13.1695 364.434C-11.3399 311.947 65.0492 259.445 64.5416 201.52C64.0267 142.761 -0.866127 94.6392 10.2998 36.9489C21.6022 -21.4463 66.6168 -77.4789 122.489 -97.8752C178.418 -118.292 237.466 -81.0672 295.345 -67.1068C340.612 -56.1883 384.91 -46.6959 425.943 -24.682C467.979 -2.12986 506.155 25.4852 536.516 62.2797C570.761 103.781 601.936 148.78 612.594 201.52C624.447 260.173 643.67 336.394 600.227 377.543C552.566 422.688 470.429 377.081 407.503 395.783Z" fill="#C0CAD2"/>
</g>
<g filter="url(#filter2_f_42_2054)">
<path fill-rule="evenodd" clip-rule="evenodd" d="M1055.2 -343.206C1125.41 -354.506 1165.53 -242.567 1205.95 -174.875C1235.63 -125.17 1249.42 -66.3088 1256.36 -6.34232C1261.65 39.4229 1222.24 88.0168 1241.08 128.668C1288.71 231.416 1460.05 271.747 1438.06 385.631C1419.55 481.502 1268.32 364.079 1189.04 398.169C1129.51 423.77 1115.68 527.894 1055.2 550.276C991.887 573.704 911.787 569.426 861.069 519.537C809.649 468.959 826.105 372.047 800.416 299.665C778.879 238.979 735.693 192.456 722.349 128.668C706.706 53.8901 672.394 -41.5225 717.185 -98.1906C765.675 -159.539 865.941 -85.8598 926.756 -129.943C991.197 -176.655 979.97 -331.1 1055.2 -343.206Z" fill="#D9E9F4"/>
</g>
<g filter="url(#filter3_f_42_2054)">
<path fill-rule="evenodd" clip-rule="evenodd" d="M1431.39 479.882C1396.14 497.918 1359.98 513.4 1329.75 539.413C1282.42 580.124 1264.08 672.412 1204.06 675.454C1146.95 678.35 1149 576.712 1100.37 551.042C1052.96 526.022 981.56 565.52 937.854 534.946C896.038 505.694 864.053 447.395 877.355 395.036C892.81 334.202 980.023 313.249 1008.64 256.313C1028.03 217.74 985.93 169.31 1009.22 132.698C1032.14 96.6604 1087.2 101.139 1122.63 77.0904C1159.2 52.2718 1179.73 5.10935 1220.48 -10.6966C1261.79 -26.7158 1306.3 -17.4905 1348.13 -10.366C1391.71 -2.94317 1437.23 4.82901 1470.65 31.9144C1504.13 59.0559 1523.77 100.157 1536.23 142.118C1548.09 182.073 1534.22 226.555 1540.8 268.116C1548.69 318.009 1603.28 364.761 1578.91 411.916C1553.79 460.556 1480.23 454.892 1431.39 479.882Z" fill="#B5BFC8"/>
</g>
<g filter="url(#filter4_f_42_2054)">
<path fill-rule="evenodd" clip-rule="evenodd" d="M689.533 762.634C723.057 780.428 755.072 799.479 792.119 811.969C850.097 831.516 932.731 818.958 968.054 856.537C1001.67 892.3 920.622 917.738 927.123 955.598C933.459 992.498 1003.7 1027.76 1003.64 1063.76C1003.58 1098.2 975.289 1134 926.819 1139.28C870.504 1145.41 806.174 1095.15 745.701 1091.83C704.732 1089.59 689.75 1129.26 648.184 1124C607.27 1118.83 580.578 1082.44 542.226 1066.11C502.647 1049.26 454.298 1048.54 419.508 1026.64C384.248 1004.44 367.075 973.546 349.727 944.922C331.652 915.099 312.783 883.94 315.748 855.443C318.72 826.888 340.263 803.51 366.419 784.496C391.325 766.39 433.914 763.553 462.986 748.409C497.887 730.228 504.699 683.015 555.146 686.182C607.18 689.45 643.086 737.979 689.533 762.634Z" fill="#B5BFC8"/>
</g>
<g filter="url(#filter5_f_42_2054)">
<path fill-rule="evenodd" clip-rule="evenodd" d="M780.464 791.596C717.72 862.874 629.188 855.523 551.403 874.068C499.226 886.507 449.333 891.195 401.902 881.848C360.549 873.698 335.214 837.985 296.396 823.814C236.428 801.922 149.576 831.079 112.724 776.281C74.5586 719.529 59.6356 617.993 106.132 540.893C155.711 458.681 258.628 474.125 329.719 416.46C383.042 373.208 403.015 270.899 461.376 252.739C520.056 234.48 538.327 327.866 592.837 334.587C666.753 343.701 767.306 254.229 824.373 297.497C878.394 338.455 860.383 446.249 852.791 531.683C845.05 618.796 842.256 721.399 780.464 791.596Z" fill="#DBE7F1"/>
</g>
</g>
<defs>
<filter id="filter0_f_42_2054" x="403.188" y="-196.888" width="1025.7" height="1043.05" filterUnits="userSpaceOnUse" color-interpolation-filters="sRGB">
<feFlood flood-opacity="0" result="BackgroundImageFix"/>
<feBlend mode="normal" in="SourceGraphic" in2="BackgroundImageFix" result="shape"/>
<feGaussianBlur stdDeviation="90" result="effect1_foregroundBlur_42_2054"/>
</filter>
<filter id="filter1_f_42_2054" x="-171.68" y="-283.862" width="978.904" height="932.521" filterUnits="userSpaceOnUse" color-interpolation-filters="sRGB">
<feFlood flood-opacity="0" result="BackgroundImageFix"/>
<feBlend mode="normal" in="SourceGraphic" in2="BackgroundImageFix" result="shape"/>
<feGaussianBlur stdDeviation="90" result="effect1_foregroundBlur_42_2054"/>
</filter>
<filter id="filter2_f_42_2054" x="515" y="-524" width="1105" height="1268" filterUnits="userSpaceOnUse" color-interpolation-filters="sRGB">
<feFlood flood-opacity="0" result="BackgroundImageFix"/>
<feBlend mode="normal" in="SourceGraphic" in2="BackgroundImageFix" result="shape"/>
<feGaussianBlur stdDeviation="90" result="effect1_foregroundBlur_42_2054"/>
</filter>
<filter id="filter3_f_42_2054" x="694.301" y="-199.554" width="1070.83" height="1055.07" filterUnits="userSpaceOnUse" color-interpolation-filters="sRGB">
<feFlood flood-opacity="0" result="BackgroundImageFix"/>
<feBlend mode="normal" in="SourceGraphic" in2="BackgroundImageFix" result="shape"/>
<feGaussianBlur stdDeviation="90" result="effect1_foregroundBlur_42_2054"/>
</filter>
<filter id="filter4_f_42_2054" x="135.439" y="506.031" width="1048.2" height="813.766" filterUnits="userSpaceOnUse" color-interpolation-filters="sRGB">
<feFlood flood-opacity="0" result="BackgroundImageFix"/>
<feBlend mode="normal" in="SourceGraphic" in2="BackgroundImageFix" result="shape"/>
<feGaussianBlur stdDeviation="90" result="effect1_foregroundBlur_42_2054"/>
</filter>
<filter id="filter5_f_42_2054" x="-102.823" y="70.3767" width="1144.68" height="996.402" filterUnits="userSpaceOnUse" color-interpolation-filters="sRGB">
<feFlood flood-opacity="0" result="BackgroundImageFix"/>
<feBlend mode="normal" in="SourceGraphic" in2="BackgroundImageFix" result="shape"/>
<feGaussianBlur stdDeviation="90" result="effect1_foregroundBlur_42_2054"/>
</filter>
<clipPath id="clip0_42_2054">
<rect width="1440" height="925" fill="white"/>
</clipPath>
</defs>
</svg>
